<svg xmlns="http://www.w3.org/2000/svg" viewBox="0 0 724.1 216.6"><defs><style>.cls-1{fill:#fff;}.cls-2{fill:#ff4713;}</style></defs><g id="Layer_2" data-name="Layer 2"><g id="Layer_1-2" data-name="Layer 1"><path class="cls-1" d="M140.8,186.2a15,15,0,0,0,3.1,2.4,20.64,20.64,0,1,0,22.2-34.8l-41-26.1-3.3-2.2c-.3-.1-.5-.4-.8-.5a13.49,13.49,0,0,0-18.3,5.4l-47,86.2L115,161.8Z"/><path class="cls-1" d="M186.2,75.8a15,15,0,0,0,2.4-3.1,20.64,20.64,0,0,0-34.8-22.2l-26.1,41-2.2,3.3c-.1.3-.4.5-.5.8a13.49,13.49,0,0,0,5.4,18.3l86.3,46.8-54.8-59.3Z"/><path class="cls-2" d="M75.8,30.5a15,15,0,0,0-3.1-2.4A20.64,20.64,0,1,0,50.5,62.9L91.5,89l3.3,2.2c.3.1.5.4.8.5a13.49,13.49,0,0,0,18.3-5.4L160.7,0,101.6,54.8Z"/><path class="cls-1" d="M30.5,140.8a15,15,0,0,0-2.4,3.1,20.64,20.64,0,1,0,34.8,22.2l26.1-41,2.2-3.3c.1-.3.4-.5.5-.8a13.49,13.49,0,0,0-5.4-18.3L0,55.9l54.8,59.3Z"/><path class="cls-1" d="M241.4,71.7h34a41.49,41.49,0,0,1,14.1,2.1,24.6,24.6,0,0,1,9.4,5.8c4.3,4.1,6.4,9.7,6.4,16.8v.2c0,5.5-1.3,10.1-4,13.8a25,25,0,0,1-10.8,8.3l17.2,25.1h-23l-14.6-22h-8.7v21.8h-20V71.7Zm33.1,34.5c3.4,0,6.1-.8,7.9-2.3a7.76,7.76,0,0,0,2.8-6.2v-.2a7.42,7.42,0,0,0-2.9-6.4,13.22,13.22,0,0,0-7.9-2.1H261.3v17.3l13.2-.1Z"/><path class="cls-1" d="M309.6,71.7h57.9v17H329.4V99.6h34.5v15.7H329.4v11.4h38.7v17H309.7l-.1-72Z"/><path class="cls-1" d="M400.7,71.1h19.2l30.6,72.5H429.1l-5.2-12.9H396.1L391,143.6H370Zm17.4,44.2-8-20.5L402,115.3Z"/><path class="cls-1" d="M452.5,71.7h27.8a53.59,53.59,0,0,1,17.2,2.6,37.46,37.46,0,0,1,12.8,7.4A30.84,30.84,0,0,1,518.2,93a37.31,37.31,0,0,1,2.7,14.4v.2a36.74,36.74,0,0,1-2.8,14.5,31.83,31.83,0,0,1-8,11.5,39.53,39.53,0,0,1-12.8,7.6,52.11,52.11,0,0,1-17.4,2.7H452.5V71.7Zm28.1,54.2c6,0,10.8-1.6,14.4-4.7s5.5-7.6,5.5-13.5v-.2c0-5.8-1.8-10.2-5.5-13.4s-8.4-4.8-14.4-4.8h-8.1v36.6Z"/><path class="cls-1" d="M537.3,116.7,510,71.7h22.7l14.8,26.2,14.9-26.2h22.3l-27.3,44.7v27.3h-20l-.1-27Z"/><path class="cls-1" d="M620,145a43.23,43.23,0,0,1-13.9-2,28.58,28.58,0,0,1-10.5-6,25.44,25.44,0,0,1-6.6-10.3,43,43,0,0,1-2.3-14.6V71.7H607v40c0,5.2,1.2,9.1,3.6,11.6a12.8,12.8,0,0,0,9.7,3.8,13.21,13.21,0,0,0,9.7-3.6c2.4-2.4,3.6-6.1,3.6-11.2V71.8h20.1v39.9a42.14,42.14,0,0,1-2.4,15,28.08,28.08,0,0,1-6.8,10.4,27.11,27.11,0,0,1-10.6,6.1A53.82,53.82,0,0,1,620,145Z"/><path class="cls-1" d="M657.7,71.7h30.8a43,43,0,0,1,12.3,1.7,28.5,28.5,0,0,1,9.5,4.9,21.66,21.66,0,0,1,6,8A25.86,25.86,0,0,1,718.4,97v.2a26,26,0,0,1-2.3,11.2,23,23,0,0,1-6.4,8.1,27.36,27.36,0,0,1-9.8,4.9,44.31,44.31,0,0,1-12.4,1.6h-9.8v20.6h-20V71.7Zm29.4,35.7c3.6,0,6.4-.8,8.4-2.5a8.52,8.52,0,0,0,3-6.8v-.2c0-3.1-1-5.4-3-7s-4.8-2.4-8.5-2.4h-9.3v19l9.4-.1Z"/><path class="cls-1" d="M713.6,72.6a5.23,5.23,0,0,1,1.2-1.7,4.18,4.18,0,0,1,1.8-1.1,7.79,7.79,0,0,1,2.1-.4,4.92,4.92,0,0,1,2.1.4,7.12,7.12,0,0,1,1.7,1.1,5,5,0,0,1,1.6,3.8,7.8,7.8,0,0,1-.4,2.2,4.34,4.34,0,0,1-1.2,1.7,6.19,6.19,0,0,1-1.7,1.1,7.12,7.12,0,0,1-2.1.4,4.92,4.92,0,0,1-2.1-.4,10.81,10.81,0,0,1-1.8-1.1,6.57,6.57,0,0,1-1.2-1.7,5.38,5.38,0,0,1-.4-2.2A5.22,5.22,0,0,1,713.6,72.6Zm.9,4a3.07,3.07,0,0,0,1,1.5,4.51,4.51,0,0,0,1.4,1,5.26,5.26,0,0,0,1.8.4,3.92,3.92,0,0,0,1.8-.4,4.51,4.51,0,0,0,1.4-1,5.6,5.6,0,0,0,1-1.5,5.82,5.82,0,0,0,.3-1.9,5.23,5.23,0,0,0-.3-1.8,3.6,3.6,0,0,0-1-1.5,12.13,12.13,0,0,0-1.4-1,4.78,4.78,0,0,0-1.8-.4,3.92,3.92,0,0,0-1.8.4,5,5,0,0,0-1.4,1,5.6,5.6,0,0,0-1,1.5,5.66,5.66,0,0,0-.3,1.8A5.82,5.82,0,0,0,714.5,76.6Zm4.5-5a2.18,2.18,0,0,1,1.7.5,1.62,1.62,0,0,1,.5,1.4,1.73,1.73,0,0,1-.5,1.3,2.2,2.2,0,0,1-1.2.5l1.8,2.8h-1.1l-1.7-2.8h-1v2.8h-1V71.7l2.5-.1Zm-.4,2.8h.6a4.33,4.33,0,0,0,.5-.1,1.38,1.38,0,0,0,.4-.3c.1-.1.1-.3.1-.6a.75.75,0,0,0-.1-.5l-.3-.3a.75.75,0,0,0-.5-.1h-1.8v2l1.1-.1Z"/></g></g></svg>